<?xml version="1.0" encoding="UTF-8"?>
<svg xmlns="http://www.w3.org/2000/svg" viewBox="0 0 2048 2048">
  <defs>
    <style>
      .cls-1, .cls-2 {
        fill: none;
      }

      .cls-2 {
        stroke: #042958;
        stroke-miterlimit: 10;
        stroke-width: 8px;
      }
    </style>
  </defs>
  <g id="_배경_사이즈" data-name="배경 사이즈">
    <rect class="cls-1" width="2048" height="2048"/>
  </g>
  <g id="Layer_11" data-name="Layer 11">
    <polyline class="cls-2" points="825.67 1707.91 1367.17 1707.91 1367.17 958.31 990.61 958.31"/>
    <polyline class="cls-2" points="321.95 1004.06 321.95 1707.91 564.06 1707.91"/>
    <circle class="cls-2" cx="695.63" cy="1728.03" r="131.57"/>
    <path class="cls-2" d="M1841.82,1519.9c0-172.75-140.04-312.79-312.79-312.79h-161.86v500.8h62.7c9.69-63.11,64.22-111.45,130.04-111.45s120.36,48.34,130.04,111.45h151.87v-188.01Z"/>
    <path class="cls-2" d="M1689.95,1707.91c-9.69-63.11-64.22-111.45-130.04-111.45s-120.36,48.34-130.04,111.45c-1.01,6.56-1.53,13.28-1.53,20.12,0,72.67,58.91,131.57,131.57,131.57s131.57-58.91,131.57-131.57c0-6.84-.52-13.56-1.53-20.12Z"/>
    <path class="cls-2" d="M623.72,421.29s-59.42-112.47-193.11-112.47-218.62,97.24-218.62,237.3c0,238.05,411.74,522.42,411.74,522.42"/>
    <path class="cls-2" d="M623.72,421.29s59.42-112.47,193.11-112.47c133.69,0,218.62,97.24,218.62,237.3,0,238.05-411.74,522.42-411.74,522.42"/>
  </g>
</svg>