<?xml version="1.0" encoding="UTF-8"?>
<svg xmlns="http://www.w3.org/2000/svg" viewBox="0 0 2048 2048">
  <defs>
    <style>
      .cls-1, .cls-2 {
        fill: none;
      }

      .cls-2 {
        stroke: #042958;
        stroke-miterlimit: 10;
        stroke-width: 8px;
      }
    </style>
  </defs>
  <g id="_배경_사이즈" data-name="배경 사이즈">
    <rect class="cls-1" width="2048" height="2048"/>
  </g>
  <g id="dessert">
    <rect class="cls-2" x="148.26" y="1389.79" width="925.72" height="447.39" rx="203.41" ry="203.41"/>
    <line class="cls-2" x1="148.26" y1="1613.48" x2="1073.98" y2="1613.48"/>
    <path class="cls-2" d="M863.37,1201.75c35.28,0,67.9,13.32,94.4,35.89,23.34,19.88,57.34,19.88,80.67,0,26.5-22.57,59.12-35.89,94.4-35.89,41.43,0,79.19,18.36,107.68,48.52,24.41,25.84,65.35,25.84,89.76,0,28.49-30.15,66.25-48.52,107.68-48.52s81.1,19.3,109.82,50.82c24.38,26.76,66.5,26.76,90.88,0,28.72-31.52,67.34-50.82,109.82-50.82,24.01,0,46.79,6.17,67.25,17.23,37.49,20.27,84.06-2.01,90.39-44.15,1.98-13.21,2.99-26.62,2.99-40.21,0-207.7-235.57-376.07-589.83-376.07s-641.45,168.37-641.45,376.07c0,20.43,2.78,40.47,8.13,60.02,11.27,41.18,60,58.29,94.95,33.76,24.11-16.92,52.31-26.64,82.47-26.64Z"/>
    <polyline class="cls-2" points="1872.8 1270.72 1608.25 1837.18 1131.42 1837.18"/>
    <line class="cls-2" x1="1599.74" y1="1404.32" x2="1480.53" y2="1837.18"/>
    <line class="cls-2" x1="1293.47" y1="1404.32" x2="1293.47" y2="1837.18"/>
    <path class="cls-2" d="M1315.91,646.5s-124.88-150.43-309.37-133.4c0,0,5.68-153.27-278.15-309.37,0,0,8.51,110.69-90.82,133.4s-215.71,105.02-224.22,269.64c0,0-254.86,5.68-265.09,224.22,0,175.97,267.92,232.74,418.35,232.74"/>
    <line class="cls-2" x1="331.03" y1="1270.72" x2="260.74" y2="993.84"/>
  </g>
</svg>