<?xml version="1.0" encoding="UTF-8"?>
<svg xmlns="http://www.w3.org/2000/svg" viewBox="0 0 2048 2048">
  <defs>
    <style>
      .cls-1, .cls-2 {
        fill: none;
      }

      .cls-2 {
        stroke: #042958;
        stroke-miterlimit: 10;
        stroke-width: 8px;
      }
    </style>
  </defs>
  <g id="_배경_사이즈" data-name="배경 사이즈">
    <rect class="cls-1" width="2048" height="2048"/>
  </g>
  <g id="Layer_10" data-name="Layer 10">
    <polyline class="cls-2" points="1636.42 1082.09 1636.42 201.18 384.73 201.18 384.73 1834.15 1076.31 1834.15"/>
    <line class="cls-2" x1="1097.35" y1="516.73" x2="563.55" y2="516.73"/>
    <line class="cls-2" x1="1097.35" y1="837.54" x2="563.55" y2="837.54"/>
    <line class="cls-2" x1="1097.35" y1="1158.34" x2="563.55" y2="1158.34"/>
    <line class="cls-2" x1="952.72" y1="1479.15" x2="563.55" y2="1479.15"/>
    <polyline class="cls-2" points="1255.13 487.8 1344.53 577.21 1491.79 411.54"/>
    <polyline class="cls-2" points="1255.13 811.38 1344.53 900.79 1491.79 735.13"/>
    <path class="cls-2" d="M1877.37,1604.49v-108.96l-124.3-17.05c-5.82-21.53-14.25-41.98-24.93-61l76.28-100.54-77.04-77.04-99.95,75.83c-18.93-10.88-39.3-19.51-60.77-25.55l-17.15-125h-108.96l-17.05,124.3c-21.53,5.82-41.98,14.25-61.01,24.93l-100.54-76.28-77.04,77.04,75.83,99.95c-10.88,18.93-19.51,39.3-25.55,60.77l-125,17.15v108.96l124.3,17.05c5.82,21.53,14.25,41.98,24.93,61l-76.28,100.54,77.04,77.04,99.95-75.83c18.93,10.88,39.3,19.51,60.77,25.55l17.15,125h108.96l17.05-124.3c21.53-5.82,41.98-14.25,61-24.93l100.54,76.28,77.04-77.04-75.83-99.95c10.88-18.93,19.51-39.3,25.55-60.77l125-17.15Zm-383.58,51.11c-59,0-106.84-47.83-106.84-106.84s47.83-106.84,106.84-106.84,106.84,47.83,106.84,106.84-47.83,106.84-106.84,106.84Z"/>
  </g>
</svg>