<?xml version="1.0" encoding="UTF-8"?>
<svg xmlns="http://www.w3.org/2000/svg" viewBox="0 0 2048 2048">
  <defs>
    <style>
      .cls-1, .cls-2 {
        fill: none;
      }

      .cls-2 {
        stroke: #042958;
        stroke-miterlimit: 10;
        stroke-width: 8px;
      }
    </style>
  </defs>
  <g id="_배경_사이즈" data-name="배경 사이즈">
    <rect class="cls-1" width="2048" height="2048"/>
  </g>
  <g id="Layer_6" data-name="Layer 6">
    <path class="cls-2" d="M955.18,1394.03h890.77c60.35,0,109.27-48.92,109.27-109.27V635.26c0-53.09-43.04-96.12-96.12-96.12H814.57c-53.09,0-96.12,43.04-96.12,96.12v536.48"/>
    <rect class="cls-2" x="718.44" y="715.9" width="1236.77" height="195.33"/>
    <path class="cls-2" d="M90.92,1024s420.71-307.11,473.3-366.28,154.22-27.11,154.22-27.11"/>
    <path class="cls-2" d="M626.67,1213.2s239.94-105.18,282.67-141.33,289.24-157.77,361.55-65.74,39.44,230.08-266.23,351.69c-92.03,36.21-131.47,236.65-483.16,246.51s-450.3,0-450.3,0"/>
    <path class="cls-2" d="M1454.07,1394.03s16.3,210.2-150.86,231.59c-106.28,13.16-70.09-138.21-66.79-231.59"/>
    <path class="cls-2" d="M1024,1394.03s-105.13,323.73,84.08,285.89c92.14-21.39,134.34-78.93,134.34-78.93"/>
    <path class="cls-2" d="M792.79,1538.51s-18.07,203.93,202.08,44.33"/>
  </g>
</svg>