<?xml version="1.0" encoding="UTF-8"?>
<svg xmlns="http://www.w3.org/2000/svg" viewBox="0 0 2048 2048">
  <defs>
    <style>
      .cls-1, .cls-2 {
        fill: none;
      }

      .cls-2 {
        stroke: #042958;
        stroke-miterlimit: 10;
        stroke-width: 8px;
      }
    </style>
  </defs>
  <g id="_배경_사이즈" data-name="배경 사이즈">
    <rect class="cls-1" width="2048" height="2048"/>
  </g>
  <g id="Layer_9" data-name="Layer 9">
    <polyline class="cls-2" points="1235.7 1133.63 1755.58 1427.15 1755.58 1903.19 312.24 1903.19 312.24 1427.15 847.36 1133.63"/>
    <polyline class="cls-2" points="722.44 1200.4 1041.53 1903.19 1353.96 1200.4"/>
    <path class="cls-2" d="M762.35,410.99c59.21-107.95,161.33-179.25,277.39-179.25s217.86,71.07,277.11,178.73c6.38-.62,12.85-.95,19.4-.95,26.54,0,51.86,5.24,74.99,14.71-64.59-168.05-206.64-284.74-371.51-284.74s-305.63,115.63-370.63,282.45c21.53-8.02,44.83-12.42,69.15-12.42,8.15,0,16.19,.5,24.09,1.46Z"/>
    <path class="cls-2" d="M1411.25,424.24c-23.13-9.47-48.45-14.71-74.99-14.71-6.55,0-13.02,.33-19.4,.95,34.34,62.41,54.33,137.11,54.33,217.39,0,63.9-12.67,124.27-35.15,177.72,.08,0,.15,0,.23,0,32.77,0,63.68-7.97,90.91-22.06,63.63-32.94,107.12-99.37,107.12-175.97,0-82.83-50.85-153.76-123.04-183.32Z"/>
    <path class="cls-2" d="M712.32,566.1c7.41-56.56,24.83-109.16,50.04-155.11-7.9-.96-15.93-1.46-24.09-1.46-24.33,0-47.62,4.4-69.15,12.42-75.27,28.05-128.88,100.57-128.88,185.61,0,78.89,46.14,147.01,112.9,178.84,25.79,12.3,54.65,19.19,85.13,19.19,1.73,0,3.45-.02,5.16-.07-22.47-53.43-35.13-113.78-35.13-177.65,0-21.01,1.37-41.64,4.01-61.77Z"/>
    <path class="cls-2" d="M1160.38,516.49c-25.59-44.17-22.15-84.1-22.15-84.1-46.26,83.49-125.61,121.35-205.75,136.32-85.61,16-172.12,5.89-220.16-2.6-2.64,20.13-4.01,40.76-4.01,61.77,0,63.88,12.66,124.22,35.13,177.65,54.49,129.56,166.71,218.47,296.31,218.47s241.79-88.88,296.29-218.41c22.49-53.45,35.15-113.81,35.15-177.72-126.11-14.89-184.18-65.43-210.81-111.39Z"/>
    <g>
      <polygon class="cls-2" points="1197.74 1551.79 1041.53 1411.11 885.32 1551.79 1041.53 1903.19 1197.74 1551.79"/>
      <path class="cls-2" d="M1235.7,947.37c-54.89,48.17-122.64,76.63-195.96,76.63s-138.14-27.25-192.39-73.55v183.18l194.17,277.48,194.17-277.48v-186.26Z"/>
    </g>
    <path class="cls-2" d="M1316.86,410.48c-59.25-107.66-161.23-178.73-277.11-178.73s-218.19,71.3-277.39,179.25c-25.2,45.95-42.63,98.54-50.04,155.11,48.04,8.49,134.55,18.6,220.16,2.6,80.14-14.98,159.49-52.83,205.75-136.32,0,0-3.44,39.94,22.15,84.1,26.63,45.96,84.7,96.5,210.81,111.39,0-80.28-19.98-154.98-54.33-217.39Z"/>
    <polyline class="cls-2" points="1464.74 758.24 1464.74 916.04 1104.37 916.04"/>
    <line class="cls-2" x1="1411.25" y1="1743.39" x2="1534.29" y2="1743.39"/>
  </g>
</svg>