<?xml version="1.0" encoding="UTF-8"?>
<svg xmlns="http://www.w3.org/2000/svg" viewBox="0 0 2048 2048">
  <defs>
    <style>
      .cls-1 {
        fill: none;
      }

      .cls-2 {
        fill: #ffea00;
        stroke: #042958;
        stroke-miterlimit: 10;
        stroke-width: 8px;
      }
    </style>
  </defs>
  <g id="_배경_사이즈" data-name="배경 사이즈">
    <rect class="cls-1" width="2048" height="2048"/>
  </g>
  <g id="Layer_12" data-name="Layer 12">
    <polygon class="cls-2" points="1014 1010.42 809.88 1117.73 848.86 890.44 683.73 729.48 911.94 696.32 1014 489.52 1116.06 696.32 1344.27 729.48 1179.14 890.44 1218.12 1117.73 1014 1010.42"/>
    <polygon class="cls-2" points="398.2 1036.97 254.09 1112.73 281.61 952.26 165.02 838.61 326.14 815.2 398.2 669.2 470.26 815.2 631.38 838.61 514.79 952.26 542.31 1112.73 398.2 1036.97"/>
    <polygon class="cls-2" points="683.73 1460.2 539.62 1535.97 567.14 1375.49 450.55 1261.85 611.67 1238.43 683.73 1092.43 755.79 1238.43 916.91 1261.85 800.32 1375.49 827.84 1535.97 683.73 1460.2"/>
    <polygon class="cls-2" points="1344.27 1460.2 1488.38 1535.97 1460.86 1375.49 1577.45 1261.85 1416.33 1238.43 1344.27 1092.43 1272.21 1238.43 1111.09 1261.85 1227.68 1375.49 1200.16 1535.97 1344.27 1460.2"/>
    <polygon class="cls-2" points="1629.8 1036.97 1773.91 1112.73 1746.39 952.26 1862.98 838.61 1701.86 815.2 1629.8 669.2 1557.74 815.2 1396.62 838.61 1513.21 952.26 1485.69 1112.73 1629.8 1036.97"/>
  </g>
</svg>