<?xml version="1.0" encoding="UTF-8"?>
<svg xmlns="http://www.w3.org/2000/svg" viewBox="0 0 2048 2048">
  <defs>
    <style>
      .cls-1, .cls-2 {
        fill: none;
      }

      .cls-2 {
        stroke: #042958;
        stroke-miterlimit: 10;
        stroke-width: 8px;
      }
    </style>
  </defs>
  <g id="_배경_사이즈" data-name="배경 사이즈">
    <rect class="cls-1" width="2048" height="2048"/>
  </g>
  <g id="cake3">
    <g>
      <line class="cls-2" x1="686.3" y1="1431.12" x2="835.64" y2="1899.38"/>
      <line class="cls-2" x1="498.13" y1="841.12" x2="641.18" y2="1289.66"/>
      <line class="cls-2" x1="774.29" y1="1124.72" x2="894.4" y2="1501.31"/>
      <line class="cls-2" x1="940.75" y1="1646.63" x2="1004.21" y2="1845.62"/>
      <line class="cls-2" x1="664.48" y1="780.41" x2="718.24" y2="948.98"/>
      <line class="cls-2" x1="1532.53" y1="1457.89" x2="1586.29" y2="1626.46"/>
      <line class="cls-2" x1="1406.42" y1="1498.11" x2="1460.19" y2="1666.68"/>
      <line class="cls-2" x1="641.18" y1="1289.66" x2="157" y2="1444.09"/>
      <line class="cls-2" x1="686.3" y1="1431.12" x2="202.11" y2="1585.55"/>
      <line class="cls-2" x1="1629.13" y1="1266.98" x2="894.4" y2="1501.31"/>
      <line class="cls-2" x1="1675.48" y1="1412.3" x2="1532.53" y2="1457.89"/>
      <line class="cls-2" x1="1406.42" y1="1498.11" x2="940.75" y2="1646.63"/>
      <line class="cls-2" x1="876.05" y1="898.65" x2="718.24" y2="948.98"/>
      <line class="cls-2" x1="1014.08" y1="1048.24" x2="774.29" y2="1124.72"/>
    </g>
    <path class="cls-2" d="M1339.62,105.33c-226.62,0-410.34,183.71-410.34,410.34s304.95,700.34,410.34,700.34,410.34-473.71,410.34-700.34-183.71-410.34-410.34-410.34Zm0,567.28c-86.68,0-156.94-70.26-156.94-156.94s70.26-156.94,156.94-156.94,156.94,70.26,156.94,156.94-70.26,156.94-156.94,156.94Z"/>
  </g>
</svg>