<?xml version="1.0" encoding="UTF-8"?>
<svg xmlns="http://www.w3.org/2000/svg" viewBox="0 0 2048 2048">
  <defs>
    <style>
      .cls-1, .cls-2 {
        fill: none;
      }

      .cls-2 {
        stroke: #042958;
        stroke-miterlimit: 10;
        stroke-width: 8px;
      }
    </style>
  </defs>
  <g id="_배경_사이즈" data-name="배경 사이즈">
    <rect class="cls-1" width="2048" height="2048"/>
  </g>
  <g id="cake1">
    <path class="cls-2" d="M1653.24,924.48c0,26.46-11.35,57.33-50.71,57.33-19.84,0-48.51-22.05-48.51-61.73s-17.64-78.87-79.37-78.87-90.4,36.98-90.4,113.3-21.73,113.3-76.14,113.3-78.94-39.14-78.94-110.24c0-112.45-60.24-116.36-60.24-116.36H234.66v944.22H1846.26V836.24h-109.24c-44.1,0-83.78,32.1-83.78,88.25Z"/>
    <path class="cls-2" d="M1286.15,634.84h355.67c.04-1.65,.06-3.3,.06-4.96,0-113.97-92.39-206.36-206.36-206.36-50.88,0-97.44,18.42-133.42,48.94,3.92,18.18,6,37.03,6,56.38,0,37.68-7.84,73.51-21.96,106Z"/>
    <path class="cls-2" d="M775.58,528.84c0-20.06,2.23-39.59,6.44-58.38-34.65-26.34-77.87-41.98-124.75-41.98-113.97,0-206.36,92.39-206.36,206.36h346.63c-14.11-32.48-21.96-68.32-21.96-106Z"/>
    <path class="cls-2" d="M1302.11,472.46c-25.87-119.97-132.56-209.88-260.26-209.88s-233.21,88.92-259.83,207.89c-4.2,18.79-6.44,38.32-6.44,58.38,0,37.68,7.84,73.51,21.96,106h488.62c14.11-32.48,21.96-68.32,21.96-106,0-19.35-2.08-38.21-6-56.38Z"/>
    <path class="cls-2" d="M1641.82,634.84H381.29c-80.98,0-146.63,65.65-146.63,146.63v59.73h934.26s60.24,3.91,60.24,116.36c0,71.1,25.36,110.24,78.94,110.24s76.14-36.98,76.14-113.3,28.66-113.3,90.4-113.3,79.37,39.19,79.37,78.87,28.66,61.73,48.51,61.73c39.36,0,50.71-30.87,50.71-57.33,0-56.15,39.69-88.25,83.78-88.25h109.24v-201.4h-204.44Z"/>
    <rect class="cls-2" x="234.66" y="1173.63" width="1611.6" height="147.72"/>
    <rect class="cls-2" x="234.66" y="1321.35" width="1611.6" height="177.27"/>
  </g>
</svg>