<?xml version="1.0" encoding="UTF-8"?>
<svg xmlns="http://www.w3.org/2000/svg" viewBox="0 0 2048 2048">
  <defs>
    <style>
      .cls-1, .cls-2 {
        fill: none;
      }

      .cls-2 {
        stroke: #042958;
        stroke-miterlimit: 10;
        stroke-width: 8px;
      }
    </style>
  </defs>
  <g id="_배경_사이즈" data-name="배경 사이즈">
    <rect class="cls-1" width="2048" height="2048"/>
  </g>
  <g id="cake4">
    <circle class="cls-2" cx="1004.63" cy="1062.93" r="451.09"/>
    <path class="cls-2" d="M1004.63,305.86c-212.43,0-404.42,87.49-541.9,228.4v42.26c0,62.57-37.91,116.28-92.01,139.43v761c135.19,206.57,368.61,343.04,633.91,343.04s491.28-132.15,627.38-333.21V639.07c-136.1-201.06-366.3-333.21-627.38-333.21Z"/>
    <path class="cls-2" d="M1877.37,498.38c-.41-135.22-110.15-244.63-245.37-244.63h0V1707.98c0,35.81,29.03,64.84,64.84,64.84h0c35.81,0,64.84-29.03,64.84-64.84v-618.5h0c72.39-40.02,117.23-77.96,116.98-160.68l-1.3-430.41Z"/>
    <path class="cls-2" d="M401.99,253.75h0c-5.29,0-9.59,4.29-9.59,9.59v230.84c0,14.09-11.42,25.51-25.51,25.51h0c-14.09,0-25.51-11.42-25.51-25.51v-219.76c0-16.71-13.54-30.25-30.25-30.25h0c-16.71,0-30.25,13.54-30.25,30.25v219.76c0,14.09-11.42,25.51-25.51,25.51h0c-14.09,0-25.51-11.42-25.51-25.51v-230.84c0-5.29-4.29-9.59-9.59-9.59h0c-33.54,0-60.74,27.19-60.74,60.74v262.04c0,61.02,36.06,113.61,88.03,137.65v997.07c0,34.01,27.57,61.58,61.58,61.58h0c34.01,0,61.58-27.57,61.58-61.58v-234.29s0-761,0-761c54.1-23.15,92.01-76.86,92.01-139.43V314.49c0-33.54-27.19-60.74-60.74-60.74Z"/>
  </g>
</svg>