<?xml version="1.0" encoding="UTF-8"?>
<svg xmlns="http://www.w3.org/2000/svg" viewBox="0 0 2048 2048">
  <defs>
    <style>
      .cls-1, .cls-2 {
        fill: none;
      }

      .cls-2 {
        stroke: #042958;
        stroke-miterlimit: 10;
        stroke-width: 8px;
      }
    </style>
  </defs>
  <g id="_배경_사이즈" data-name="배경 사이즈">
    <rect class="cls-1" width="2048" height="2048"/>
  </g>
  <g id="cake2">
    <polyline class="cls-2" points="932.96 1872.98 254.87 1872.98 254.87 180.85 984.23 180.85 984.23 685.16 1501.04 685.16 1501.04 1131.11"/>
    <line class="cls-2" x1="984.23" y1="180.85" x2="1501.04" y2="685.16"/>
    <line class="cls-2" x1="1273.43" y1="873.87" x2="479.19" y2="873.87"/>
    <line class="cls-2" x1="1273.43" y1="1092.63" x2="479.19" y2="1092.63"/>
    <line class="cls-2" x1="1170.12" y1="1311.38" x2="479.19" y2="1311.38"/>
    <line class="cls-2" x1="1024" y1="1530.13" x2="479.19" y2="1530.13"/>
    <g>
      <path class="cls-2" d="M1745.58,1034.24h0l-600.27,607.08-60.68,231.67,230.97-63.29,600.27-607.08h0c14.35-99.13-71.33-183.85-170.29-168.38Z"/>
      <line class="cls-2" x1="1145.31" y1="1641.31" x2="1315.6" y2="1809.69"/>
      <polyline class="cls-2" points="1745.58 1034.24 1835 1122.65 1915.87 1202.62"/>
    </g>
  </g>
</svg>